<svg width="94" height="26" viewBox="0 0 94 26" fill="none" xmlns="http://www.w3.org/2000/svg">
<path d="M17.3455 5.54195C17.3455 4.51411 16.2152 3.8872 15.3432 4.43141L7.27052 9.46987C6.88737 9.70901 6.65455 10.1288 6.65455 10.5804V20.4579C6.65455 21.4858 7.78482 22.1127 8.65677 21.5685L16.7295 16.53C17.1126 16.2909 17.3455 15.8711 17.3455 15.4195V5.54195Z" fill="url(#paint0_linear_2025_58765)"/>
<path d="M12.9818 3.36019C12.9818 2.33235 11.8515 1.70544 10.9796 2.24965L2.90687 7.28811C2.52372 7.52724 2.2909 7.94699 2.2909 8.39865V18.2762C2.2909 19.304 3.42117 19.9309 4.29312 19.3867L12.3658 14.3483C12.749 14.1091 12.9818 13.6894 12.9818 13.2377V3.36019Z" fill="url(#paint1_linear_2025_58765)"/>
<path d="M21.7091 7.72384C21.7091 6.696 20.5788 6.06909 19.7069 6.6133L11.6342 11.6518C11.251 11.8909 11.0182 12.3106 11.0182 12.7623V22.6398C11.0182 23.6677 12.1485 24.2946 13.0204 23.7504L21.0931 18.7119C21.4763 18.4728 21.7091 18.053 21.7091 17.6014V7.72384Z" fill="url(#paint2_linear_2025_58765)"/>
<path d="M40.7273 10.625C40.6477 10.3485 40.536 10.1042 40.392 9.89205C40.2481 9.67614 40.072 9.49432 39.8636 9.34659C39.6591 9.19508 39.4242 9.07955 39.1591 9C38.8977 8.92045 38.608 8.88068 38.2898 8.88068C37.6951 8.88068 37.1723 9.02841 36.7216 9.32386C36.2746 9.61932 35.9261 10.0492 35.6761 10.6136C35.4261 11.1742 35.3011 11.8598 35.3011 12.6705C35.3011 13.4811 35.4242 14.1705 35.6705 14.7386C35.9167 15.3068 36.2652 15.7405 36.7159 16.0398C37.1667 16.3352 37.6989 16.483 38.3125 16.483C38.8693 16.483 39.3447 16.3845 39.7386 16.1875C40.1364 15.9867 40.4394 15.7045 40.6477 15.3409C40.8598 14.9773 40.9659 14.5473 40.9659 14.0511L41.4659 14.125H38.4659V12.2727H43.3352V13.7386C43.3352 14.7614 43.1193 15.6402 42.6875 16.375C42.2557 17.1061 41.661 17.6705 40.9034 18.0682C40.1458 18.4621 39.2784 18.6591 38.3011 18.6591C37.2102 18.6591 36.2519 18.4186 35.4261 17.9375C34.6004 17.4527 33.9564 16.7652 33.4943 15.875C33.036 14.9811 32.8068 13.9205 32.8068 12.6932C32.8068 11.75 32.9432 10.9091 33.2159 10.1705C33.4924 9.42803 33.8788 8.79924 34.375 8.28409C34.8712 7.76894 35.4489 7.37689 36.108 7.10795C36.767 6.83901 37.4811 6.70455 38.25 6.70455C38.9091 6.70455 39.5227 6.80114 40.0909 6.99432C40.6591 7.18371 41.1629 7.45265 41.6023 7.80114C42.0455 8.14962 42.4072 8.56439 42.6875 9.04545C42.9678 9.52273 43.1477 10.0492 43.2273 10.625H40.7273ZM49.1151 18.6705C48.2173 18.6705 47.4446 18.4886 46.7969 18.125C46.1529 17.7576 45.6567 17.2386 45.3082 16.5682C44.9598 15.8939 44.7855 15.0966 44.7855 14.1761C44.7855 13.2784 44.9598 12.4905 45.3082 11.8125C45.6567 11.1345 46.1473 10.6061 46.7798 10.2273C47.4162 9.84848 48.1624 9.65909 49.0185 9.65909C49.5942 9.65909 50.1302 9.75189 50.6264 9.9375C51.1264 10.1193 51.562 10.3939 51.9332 10.7614C52.3082 11.1288 52.5999 11.5909 52.8082 12.1477C53.0166 12.7008 53.1207 13.3485 53.1207 14.0909V14.7557H45.7514V13.2557H50.8423C50.8423 12.9072 50.7666 12.5985 50.6151 12.3295C50.4635 12.0606 50.2533 11.8504 49.9844 11.6989C49.7192 11.5436 49.4105 11.4659 49.0582 11.4659C48.6908 11.4659 48.3651 11.5511 48.081 11.7216C47.8007 11.8883 47.581 12.1136 47.4219 12.3977C47.2628 12.678 47.1813 12.9905 47.1776 13.3352V14.7614C47.1776 15.1932 47.2571 15.5663 47.4162 15.8807C47.5791 16.1951 47.8082 16.4375 48.1037 16.608C48.3991 16.7784 48.7495 16.8636 49.1548 16.8636C49.4238 16.8636 49.67 16.8258 49.8935 16.75C50.117 16.6742 50.3082 16.5606 50.4673 16.4091C50.6264 16.2576 50.7476 16.072 50.831 15.8523L53.0696 16C52.956 16.5379 52.723 17.0076 52.3707 17.4091C52.0223 17.8068 51.5715 18.1174 51.0185 18.3409C50.4692 18.5606 49.8348 18.6705 49.1151 18.6705ZM58.6435 18.6705C57.7609 18.6705 56.9976 18.483 56.3537 18.108C55.7135 17.7292 55.2192 17.2027 54.8707 16.5284C54.5223 15.8504 54.348 15.0644 54.348 14.1705C54.348 13.2689 54.5223 12.4811 54.8707 11.8068C55.2192 11.1288 55.7135 10.6023 56.3537 10.2273C56.9976 9.84848 57.7609 9.65909 58.6435 9.65909C59.526 9.65909 60.2874 9.84848 60.9276 10.2273C61.5715 10.6023 62.0677 11.1288 62.4162 11.8068C62.7647 12.4811 62.9389 13.2689 62.9389 14.1705C62.9389 15.0644 62.7647 15.8504 62.4162 16.5284C62.0677 17.2027 61.5715 17.7292 60.9276 18.108C60.2874 18.483 59.526 18.6705 58.6435 18.6705ZM58.6548 16.7955C59.0563 16.7955 59.3916 16.6818 59.6605 16.4545C59.9295 16.2235 60.1321 15.9091 60.2685 15.5114C60.4086 15.1136 60.4787 14.661 60.4787 14.1534C60.4787 13.6458 60.4086 13.1932 60.2685 12.7955C60.1321 12.3977 59.9295 12.0833 59.6605 11.8523C59.3916 11.6212 59.0563 11.5057 58.6548 11.5057C58.2495 11.5057 57.9086 11.6212 57.6321 11.8523C57.3594 12.0833 57.1529 12.3977 57.0128 12.7955C56.8764 13.1932 56.8082 13.6458 56.8082 14.1534C56.8082 14.661 56.8764 15.1136 57.0128 15.5114C57.1529 15.9091 57.3594 16.2235 57.6321 16.4545C57.9086 16.6818 58.2495 16.7955 58.6548 16.7955ZM67.0014 18.6648C66.4446 18.6648 65.9484 18.5682 65.5128 18.375C65.0772 18.178 64.7325 17.8883 64.4787 17.5057C64.2287 17.1193 64.1037 16.6383 64.1037 16.0625C64.1037 15.5777 64.1927 15.1705 64.3707 14.8409C64.5488 14.5114 64.7912 14.2462 65.098 14.0455C65.4048 13.8447 65.7533 13.6932 66.1435 13.5909C66.5374 13.4886 66.9503 13.4167 67.3821 13.375C67.8897 13.322 68.2988 13.2727 68.6094 13.2273C68.92 13.178 69.1454 13.1061 69.2855 13.0114C69.4257 12.9167 69.4957 12.7765 69.4957 12.5909V12.5568C69.4957 12.197 69.3821 11.9186 69.1548 11.7216C68.9313 11.5246 68.6132 11.4261 68.2003 11.4261C67.7647 11.4261 67.4181 11.5227 67.1605 11.7159C66.9029 11.9053 66.7325 12.1439 66.6491 12.4318L64.4105 12.25C64.5241 11.7197 64.7476 11.2614 65.081 10.875C65.4143 10.4848 65.8442 10.1856 66.3707 9.97727C66.901 9.76515 67.5147 9.65909 68.2116 9.65909C68.6965 9.65909 69.1605 9.71591 69.6037 9.82955C70.0507 9.94318 70.4465 10.1193 70.7912 10.358C71.1397 10.5966 71.4143 10.9034 71.6151 11.2784C71.8158 11.6496 71.9162 12.0947 71.9162 12.6136V18.5H69.6207V17.2898H69.5526C69.4124 17.5625 69.2249 17.803 68.9901 18.0114C68.7552 18.2159 68.473 18.3769 68.1435 18.4943C67.8139 18.608 67.4332 18.6648 67.0014 18.6648ZM67.6946 16.9943C68.0507 16.9943 68.3651 16.9242 68.6378 16.7841C68.9105 16.6402 69.1245 16.447 69.2798 16.2045C69.4351 15.9621 69.5128 15.6875 69.5128 15.3807V14.4545C69.437 14.5038 69.3329 14.5492 69.2003 14.5909C69.0715 14.6288 68.9257 14.6648 68.7628 14.6989C68.5999 14.7292 68.437 14.7576 68.2741 14.7841C68.1113 14.8068 67.9635 14.8277 67.831 14.8466C67.5469 14.8883 67.2988 14.9545 67.0866 15.0455C66.8745 15.1364 66.7098 15.2595 66.5923 15.4148C66.4749 15.5663 66.4162 15.7557 66.4162 15.983C66.4162 16.3125 66.5355 16.5644 66.7741 16.7386C67.0166 16.9091 67.3234 16.9943 67.6946 16.9943ZM73.794 21.7727V9.77273H76.1804V11.2386H76.2884C76.3944 11.0038 76.5478 10.7652 76.7486 10.5227C76.9531 10.2765 77.2183 10.072 77.544 9.90909C77.8736 9.74242 78.2827 9.65909 78.7713 9.65909C79.4077 9.65909 79.9948 9.82576 80.5327 10.1591C81.0705 10.4886 81.5005 10.9867 81.8224 11.6534C82.1444 12.3163 82.3054 13.1477 82.3054 14.1477C82.3054 15.1212 82.1482 15.9432 81.8338 16.6136C81.5232 17.2803 81.099 17.786 80.5611 18.1307C80.027 18.4716 79.4285 18.642 78.7656 18.642C78.2959 18.642 77.8963 18.5644 77.5668 18.4091C77.241 18.2538 76.974 18.0587 76.7656 17.8239C76.5573 17.5852 76.3982 17.3447 76.2884 17.1023H76.2145V21.7727H73.794ZM76.1634 14.1364C76.1634 14.6553 76.2353 15.108 76.3793 15.4943C76.5232 15.8807 76.7315 16.1818 77.0043 16.3977C77.277 16.6098 77.6084 16.7159 77.9986 16.7159C78.3925 16.7159 78.7259 16.608 78.9986 16.392C79.2713 16.1723 79.4777 15.8693 79.6179 15.483C79.7618 15.0928 79.8338 14.6439 79.8338 14.1364C79.8338 13.6326 79.7637 13.1894 79.6236 12.8068C79.4834 12.4242 79.277 12.125 79.0043 11.9091C78.7315 11.6932 78.3963 11.5852 77.9986 11.5852C77.6046 11.5852 77.2713 11.6894 76.9986 11.8977C76.7296 12.1061 76.5232 12.4015 76.3793 12.7841C76.2353 13.1667 76.1634 13.6174 76.1634 14.1364ZM83.919 21.7727V9.77273H86.3054V11.2386H86.4134C86.5194 11.0038 86.6728 10.7652 86.8736 10.5227C87.0781 10.2765 87.3433 10.072 87.669 9.90909C87.9986 9.74242 88.4077 9.65909 88.8963 9.65909C89.5327 9.65909 90.1198 9.82576 90.6577 10.1591C91.1955 10.4886 91.6255 10.9867 91.9474 11.6534C92.2694 12.3163 92.4304 13.1477 92.4304 14.1477C92.4304 15.1212 92.2732 15.9432 91.9588 16.6136C91.6482 17.2803 91.224 17.786 90.6861 18.1307C90.152 18.4716 89.5535 18.642 88.8906 18.642C88.4209 18.642 88.0213 18.5644 87.6918 18.4091C87.366 18.2538 87.099 18.0587 86.8906 17.8239C86.6823 17.5852 86.5232 17.3447 86.4134 17.1023H86.3395V21.7727H83.919ZM86.2884 14.1364C86.2884 14.6553 86.3603 15.108 86.5043 15.4943C86.6482 15.8807 86.8565 16.1818 87.1293 16.3977C87.402 16.6098 87.7334 16.7159 88.1236 16.7159C88.5175 16.7159 88.8509 16.608 89.1236 16.392C89.3963 16.1723 89.6027 15.8693 89.7429 15.483C89.8868 15.0928 89.9588 14.6439 89.9588 14.1364C89.9588 13.6326 89.8887 13.1894 89.7486 12.8068C89.6084 12.4242 89.402 12.125 89.1293 11.9091C88.8565 11.6932 88.5213 11.5852 88.1236 11.5852C87.7296 11.5852 87.3963 11.6894 87.1236 11.8977C86.8546 12.1061 86.6482 12.4015 86.5043 12.7841C86.3603 13.1667 86.2884 13.6174 86.2884 14.1364Z" fill="#002033"/>
<defs>
<linearGradient id="paint0_linear_2025_58765" x1="17.3455" y1="8.1454" x2="3.32728" y2="14.1999" gradientUnits="userSpaceOnUse">
<stop stop-color="#E3BBF9"/>
<stop offset="1" stop-color="#4491F8"/>
</linearGradient>
<linearGradient id="paint1_linear_2025_58765" x1="16.1454" y1="3.83636" x2="-5.45455" y2="17.6364" gradientUnits="userSpaceOnUse">
<stop/>
<stop offset="1" stop-color="#7D7F70" stop-opacity="0"/>
</linearGradient>
<linearGradient id="paint2_linear_2025_58765" x1="24.8727" y1="8.20001" x2="3.27274" y2="22" gradientUnits="userSpaceOnUse">
<stop stop-color="#FF8E00"/>
<stop offset="1" stop-color="#D61BB8" stop-opacity="0"/>
</linearGradient>
</defs>
</svg>
