<svg width="12" height="12" viewBox="0 0 12 12" fill="none" xmlns="http://www.w3.org/2000/svg">
<path d="M4 12C5.104 12 6 11.104 6 10V8H4C2.896 8 2 8.896 2 10C2 11.104 2.896 12 4 12Z" fill="#0ACF83"/>
<path d="M2 6C2 4.896 2.896 4 4 4H6V8H4C2.896 8 2 7.104 2 6Z" fill="#A259FF"/>
<path d="M2 2C2 0.896 2.896 0 4 0H6V4H4C2.896 4 2 3.104 2 2Z" fill="#F24E1E"/>
<path d="M6 0H8C9.104 0 10 0.896 10 2C10 3.104 9.104 4 8 4H6V0Z" fill="#FF7262"/>
<path d="M10 6C10 7.104 9.104 8 8 8C6.896 8 6 7.104 6 6C6 4.896 6.896 4 8 4C9.104 4 10 4.896 10 6Z" fill="#1ABCFE"/>
</svg>
