<svg width="12" height="12" viewBox="0 0 12 12" fill="none" xmlns="http://www.w3.org/2000/svg">
<g clip-path="url(#clip0_2025_58793)">
<path d="M5.99925 0C2.6865 0 3.46236e-06 2.697 3.46236e-06 6.024C-0.00135 7.28666 0.394139 8.51782 1.13058 9.54347C1.86702 10.5691 2.90716 11.3374 4.104 11.7397C4.404 11.7952 4.5135 11.6093 4.5135 11.4495C4.5135 11.3062 4.50825 10.9275 4.50525 10.425C2.8365 10.7887 2.484 9.61725 2.484 9.61725C2.21175 8.92125 1.818 8.736 1.818 8.736C1.27275 8.3625 1.8585 8.37 1.8585 8.37C2.46075 8.41275 2.77725 8.991 2.77725 8.991C3.31275 9.91125 4.182 9.64575 4.524 9.49125C4.578 9.102 4.73325 8.8365 4.905 8.68575C3.573 8.5335 2.172 8.01675 2.172 5.709C2.172 5.05125 2.406 4.5135 2.79 4.092C2.72775 3.93975 2.52225 3.327 2.8485 2.49825C2.8485 2.49825 3.3525 2.33625 4.4985 3.1155C4.98806 2.98171 5.49324 2.91361 6.00075 2.913C6.50829 2.91401 7.01345 2.98235 7.503 3.11625C8.64825 2.337 9.1515 2.499 9.1515 2.499C9.4785 3.3285 9.273 3.9405 9.2115 4.09275C9.59625 4.51425 9.828 5.052 9.828 5.70975C9.828 8.0235 8.4255 8.53275 7.089 8.682C7.30425 8.868 7.49625 9.2355 7.49625 9.79725C7.49625 10.6027 7.48875 11.2522 7.48875 11.4495C7.48875 11.6108 7.59675 11.7983 7.90125 11.739C9.09694 11.3357 10.1358 10.5671 10.8712 9.54173C11.6066 8.51632 12.0015 7.28586 12 6.024C12 2.697 9.3135 0 5.99925 0Z" fill="black"/>
</g>
<defs>
<clipPath id="clip0_2025_58793">
<rect width="12" height="12" fill="white"/>
</clipPath>
</defs>
</svg>
