<svg width="143" height="104" viewBox="0 0 143 104" fill="none" xmlns="http://www.w3.org/2000/svg">
<g filter="url(#filter0_d_2025_58804)">
<rect width="104.012" height="47.0058" rx="9.00471" transform="matrix(0.965926 -0.258819 0.253305 0.967387 15 26.92)" fill="#5AE01A" shape-rendering="crispEdges"/>
<path d="M45.6544 31.3676L49.0571 30.4559L52.9343 45.2635C53.3469 46.8391 53.343 48.3343 52.9224 49.7489C52.5 51.1561 51.7103 52.3873 50.5535 53.4423C49.3948 54.4901 47.9153 55.2551 46.1152 55.7374C44.3224 56.2178 42.6662 56.293 41.1467 55.9629C39.6253 55.6255 38.3367 54.9512 37.281 53.94C36.2234 52.9215 35.4883 51.6244 35.0757 50.0487L31.1984 35.2411L34.5901 34.3323L38.3955 48.8651C38.6622 49.8837 39.1224 50.729 39.776 51.4009C40.4369 52.0709 41.2403 52.5222 42.1862 52.755C43.1302 52.9805 44.1692 52.9413 45.3035 52.6374C46.445 52.3315 47.3707 51.8443 48.0806 51.1757C48.7958 50.4978 49.2693 49.7042 49.5011 48.7951C49.7402 47.884 49.7264 46.9191 49.4597 45.9004L45.6544 31.3676ZM54.4936 28.9992L62.1777 36.3634L62.3533 36.3164L65.4261 26.0698L69.3557 25.0169L65.3002 38.1502L75.2947 47.5188L71.3431 48.5776L63.6688 41.3402L63.4931 41.3872L60.3667 51.5188L56.4152 52.5776L60.6353 39.4002L50.564 30.0521L54.4936 28.9992ZM78.8872 21.3335L78.7008 50.2296L75.77 51.0149L75.9565 22.1188L78.8872 21.3335ZM94.8164 18.1947L98.2191 17.2829L102.096 32.0906C102.509 33.6662 102.505 35.1614 102.084 36.576C101.662 37.9832 100.872 39.2144 99.7155 40.2694C98.5568 41.3171 97.0773 42.0822 95.2772 42.5645C93.4844 43.0449 91.8282 43.12 90.3087 42.79C88.7873 42.4526 87.4987 41.7783 86.443 40.7671C85.3854 39.7485 84.6503 38.4514 84.2377 36.8758L80.3604 22.0682L83.7521 21.1593L87.5575 35.6921C87.8242 36.7108 88.2844 37.5561 88.938 38.228C89.5989 38.8979 90.4023 39.3493 91.3482 39.5821C92.2922 39.8076 93.3313 39.7684 94.4655 39.4645C95.607 39.1586 96.5327 38.6714 97.2426 38.0027C97.9578 37.3248 98.4313 36.5313 98.6631 35.6222C98.9022 34.7111 98.8884 33.7462 98.6217 32.7275L94.8164 18.1947ZM104.687 15.5498L110.582 38.0635L107.191 38.9723L101.296 16.4586L104.687 15.5498Z" fill="white"/>
</g>
<defs>
<filter id="filter0_d_2025_58804" x="-1.88755" y="-0.276714" width="146.149" height="106.168" filterUnits="userSpaceOnUse" color-interpolation-filters="sRGB">
<feFlood flood-opacity="0" result="BackgroundImageFix"/>
<feColorMatrix in="SourceAlpha" type="matrix" values="0 0 0 0 0 0 0 0 0 0 0 0 0 0 0 0 0 0 127 0" result="hardAlpha"/>
<feOffset dy="16.611"/>
<feGaussianBlur stdDeviation="8.44378"/>
<feComposite in2="hardAlpha" operator="out"/>
<feColorMatrix type="matrix" values="0 0 0 0 0 0 0 0 0 0 0 0 0 0 0 0 0 0 0.12 0"/>
<feBlend mode="normal" in2="BackgroundImageFix" result="effect1_dropShadow_2025_58804"/>
<feBlend mode="normal" in="SourceGraphic" in2="effect1_dropShadow_2025_58804" result="shape"/>
</filter>
</defs>
</svg>
